<mxfile host="65bd71144e">
    <diagram id="1c3An55JCnaggGT1SOmq" name="Page-1">
        <mxGraphModel dx="966" dy="673" grid="1" gridSize="10" guides="1" tooltips="1" connect="1" arrows="1" fold="1" page="1" pageScale="1" pageWidth="827" pageHeight="1169" math="0" shadow="0">
            <root>
                <mxCell id="0"/>
                <mxCell id="1" parent="0"/>
                <mxCell id="29" value="TO DO" style="whiteSpace=wrap;html=1;shape=mxgraph.basic.cloud_rect;fillColor=none;align=center;labelPosition=center;verticalLabelPosition=top;verticalAlign=bottom;" vertex="1" parent="1">
                    <mxGeometry x="494" y="600" width="120" height="120" as="geometry"/>
                </mxCell>
                <mxCell id="2" value="Users" style="image;aspect=fixed;perimeter=ellipsePerimeter;html=1;align=center;shadow=0;dashed=0;spacingTop=3;image=img/lib/active_directory/user_accounts.svg;labelPosition=center;verticalLabelPosition=top;verticalAlign=bottom;" vertex="1" parent="1">
                    <mxGeometry x="88" y="329" width="50" height="48.5" as="geometry"/>
                </mxCell>
                <mxCell id="3" value="Frontend&lt;div&gt;service&lt;/div&gt;" style="shadow=0;dashed=0;html=1;labelPosition=center;verticalLabelPosition=bottom;verticalAlign=top;align=center;outlineConnect=0;shape=mxgraph.veeam.3d.remote_site;" vertex="1" parent="1">
                    <mxGeometry x="260" y="329" width="38.53" height="50.25" as="geometry"/>
                </mxCell>
                <mxCell id="4" value="AWS Account" style="points=[[0,0],[0.25,0],[0.5,0],[0.75,0],[1,0],[1,0.25],[1,0.5],[1,0.75],[1,1],[0.75,1],[0.5,1],[0.25,1],[0,1],[0,0.75],[0,0.5],[0,0.25]];outlineConnect=0;gradientColor=none;html=1;whiteSpace=wrap;fontSize=12;fontStyle=0;container=0;pointerEvents=0;collapsible=0;recursiveResize=0;shape=mxgraph.aws4.group;grIcon=mxgraph.aws4.group_account;strokeColor=#CD2264;fillColor=none;verticalAlign=top;align=left;spacingLeft=30;fontColor=#CD2264;dashed=0;" vertex="1" parent="1">
                    <mxGeometry x="200" y="172" width="560" height="578" as="geometry"/>
                </mxCell>
                <mxCell id="12" value="1. Upload request" style="endArrow=classic;html=1;spacingTop=-15;" edge="1" parent="1">
                    <mxGeometry width="50" height="50" relative="1" as="geometry">
                        <mxPoint x="140" y="355" as="sourcePoint"/>
                        <mxPoint x="250" y="355" as="targetPoint"/>
                    </mxGeometry>
                </mxCell>
                <mxCell id="13" value="2. Link request" style="endArrow=classic;html=1;spacingTop=-15;entryX=0;entryY=0.25;entryDx=0;entryDy=0;entryPerimeter=0;startArrow=blockThin;startFill=0;" edge="1" parent="1">
                    <mxGeometry width="50" height="50" relative="1" as="geometry">
                        <mxPoint x="300" y="349" as="sourcePoint"/>
                        <mxPoint x="400" y="349" as="targetPoint"/>
                    </mxGeometry>
                </mxCell>
                <mxCell id="18" value="" style="edgeStyle=none;html=1;entryX=0;entryY=0.5;entryDx=0;entryDy=0;entryPerimeter=0;textDirection=ltr;" edge="1" parent="1" target="7">
                    <mxGeometry x="-0.3179" y="77" relative="1" as="geometry">
                        <mxPoint x="286" y="324" as="sourcePoint"/>
                        <mxPoint as="offset"/>
                    </mxGeometry>
                </mxCell>
                <mxCell id="19" value="&lt;span style=&quot;color: rgb(0, 0, 0); font-family: Helvetica; font-size: 11px; font-style: normal; font-variant-ligatures: normal; font-variant-caps: normal; font-weight: 400; letter-spacing: normal; orphans: 2; text-align: center; text-indent: 0px; text-transform: none; widows: 2; word-spacing: 0px; -webkit-text-stroke-width: 0px; white-space: nowrap; background-color: rgb(255, 255, 255); text-decoration-thickness: initial; text-decoration-style: initial; text-decoration-color: initial; float: none; display: inline !important;&quot;&gt;4. Load files via pre-signed URL&lt;/span&gt;" style="text;whiteSpace=wrap;html=1;rotation=-42;" vertex="1" parent="1">
                    <mxGeometry x="246" y="224" width="250" height="40" as="geometry"/>
                </mxCell>
                <mxCell id="20" value="5. Process files!" style="endArrow=classic;html=1;spacingTop=-5;entryX=0;entryY=0.25;entryDx=0;entryDy=0;entryPerimeter=0;startArrow=none;startFill=0;labelPosition=center;verticalLabelPosition=bottom;align=center;verticalAlign=top;" edge="1" parent="1">
                    <mxGeometry width="50" height="50" relative="1" as="geometry">
                        <mxPoint x="300" y="369" as="sourcePoint"/>
                        <mxPoint x="400" y="369" as="targetPoint"/>
                    </mxGeometry>
                </mxCell>
                <mxCell id="24" value="8. Fetch input data files" style="text;html=1;align=center;verticalAlign=middle;resizable=0;points=[];autosize=1;strokeColor=none;fillColor=none;rotation=30;" vertex="1" parent="1">
                    <mxGeometry x="490" y="261" width="150" height="30" as="geometry"/>
                </mxCell>
                <mxCell id="26" value="7. New cluster" style="edgeStyle=none;html=1;spacingTop=10;startArrow=none;startFill=0;" edge="1" parent="1">
                    <mxGeometry x="-0.0962" y="15" relative="1" as="geometry">
                        <mxPoint x="578" y="357.9076923076923" as="sourcePoint"/>
                        <mxPoint x="660.0005459384454" y="357.59230559254434" as="targetPoint"/>
                        <mxPoint as="offset"/>
                    </mxGeometry>
                </mxCell>
                <mxCell id="31" value="&lt;span style=&quot;color: rgb(0, 0, 0); font-size: 11px; background-color: rgb(255, 255, 255);&quot;&gt;3. Generate URL&lt;/span&gt;" style="text;html=1;align=center;verticalAlign=middle;resizable=0;points=[];autosize=1;strokeColor=none;fillColor=none;rotation=40.4;" vertex="1" parent="1">
                    <mxGeometry x="431" y="405" width="110" height="30" as="geometry"/>
                </mxCell>
                <mxCell id="33" style="edgeStyle=none;html=1;entryX=0.75;entryY=1;entryDx=0;entryDy=0;" edge="1" parent="1" source="30" target="2">
                    <mxGeometry relative="1" as="geometry">
                        <Array as="points">
                            <mxPoint x="320" y="645"/>
                        </Array>
                    </mxGeometry>
                </mxCell>
                <mxCell id="21" value="6. Init EMR" style="edgeStyle=none;html=1;spacingTop=10;startArrow=none;startFill=0;" edge="1" parent="1">
                    <mxGeometry x="-0.0962" y="15" relative="1" as="geometry">
                        <mxPoint x="448" y="356.9076923076923" as="sourcePoint"/>
                        <mxPoint x="530.0005459384454" y="356.59230559254434" as="targetPoint"/>
                        <mxPoint as="offset"/>
                    </mxGeometry>
                </mxCell>
                <mxCell id="5" value="API GW" style="sketch=0;points=[[0,0,0],[0.25,0,0],[0.5,0,0],[0.75,0,0],[1,0,0],[0,1,0],[0.25,1,0],[0.5,1,0],[0.75,1,0],[1,1,0],[0,0.25,0],[0,0.5,0],[0,0.75,0],[1,0.25,0],[1,0.5,0],[1,0.75,0]];outlineConnect=0;fontColor=#232F3E;fillColor=#8C4FFF;strokeColor=#ffffff;dashed=0;verticalLabelPosition=top;verticalAlign=bottom;align=center;html=1;fontSize=12;fontStyle=0;aspect=fixed;shape=mxgraph.aws4.resourceIcon;resIcon=mxgraph.aws4.api_gateway;labelPosition=center;" vertex="1" parent="1">
                    <mxGeometry x="400" y="333" width="48" height="48" as="geometry"/>
                </mxCell>
                <mxCell id="23" style="edgeStyle=none;html=1;startArrow=classicThin;startFill=1;exitX=1;exitY=0.5;exitDx=0;exitDy=0;exitPerimeter=0;endArrow=blockThin;endFill=0;" edge="1" parent="1" source="7" target="10">
                    <mxGeometry relative="1" as="geometry"/>
                </mxCell>
                <mxCell id="7" value="S3 Bucket" style="sketch=0;points=[[0,0,0],[0.25,0,0],[0.5,0,0],[0.75,0,0],[1,0,0],[0,1,0],[0.25,1,0],[0.5,1,0],[0.75,1,0],[1,1,0],[0,0.25,0],[0,0.5,0],[0,0.75,0],[1,0.25,0],[1,0.5,0],[1,0.75,0]];outlineConnect=0;fontColor=#232F3E;fillColor=#7AA116;strokeColor=#ffffff;dashed=0;verticalLabelPosition=bottom;verticalAlign=top;align=center;html=1;fontSize=12;fontStyle=0;aspect=fixed;shape=mxgraph.aws4.resourceIcon;resIcon=mxgraph.aws4.s3;" vertex="1" parent="1">
                    <mxGeometry x="399" y="200" width="49" height="49" as="geometry"/>
                </mxCell>
                <mxCell id="32" style="edgeStyle=none;html=1;" edge="1" parent="1" source="10" target="30">
                    <mxGeometry relative="1" as="geometry">
                        <Array as="points">
                            <mxPoint x="683" y="610"/>
                        </Array>
                    </mxGeometry>
                </mxCell>
                <mxCell id="10" value="EMR" style="outlineConnect=0;dashed=0;verticalLabelPosition=middle;verticalAlign=middle;align=left;shape=mxgraph.aws3.emr_cluster;fillColor=#F58534;gradientColor=none;labelPosition=right;labelBorderColor=none;textShadow=1;labelBackgroundColor=none;html=1;whiteSpace=wrap;" vertex="1" parent="1">
                    <mxGeometry x="660" y="330.5" width="46.69" height="53" as="geometry"/>
                </mxCell>
                <mxCell id="11" value="Lambda&lt;div&gt;init EMR&lt;/div&gt;" style="sketch=0;outlineConnect=0;fontColor=#232F3E;gradientColor=none;fillColor=#ED7100;strokeColor=none;dashed=0;verticalLabelPosition=bottom;verticalAlign=top;align=center;html=1;fontSize=12;fontStyle=0;aspect=fixed;pointerEvents=1;shape=mxgraph.aws4.lambda_function;" vertex="1" parent="1">
                    <mxGeometry x="530" y="332.5" width="48" height="48" as="geometry"/>
                </mxCell>
                <mxCell id="6" value="Lambda&lt;div&gt;presigned links&lt;/div&gt;" style="sketch=0;outlineConnect=0;fontColor=#232F3E;gradientColor=none;fillColor=#ED7100;strokeColor=none;dashed=0;verticalLabelPosition=bottom;verticalAlign=top;align=center;html=1;fontSize=12;fontStyle=0;aspect=fixed;pointerEvents=1;shape=mxgraph.aws4.lambda_function;" vertex="1" parent="1">
                    <mxGeometry x="530" y="469" width="48" height="48" as="geometry"/>
                </mxCell>
                <mxCell id="14" value="" style="endArrow=classic;html=1;spacingTop=0;textDirection=vertical-lr;spacingLeft=15;spacingBottom=-51;startArrow=classic;startFill=0;exitX=0.5;exitY=1;exitDx=0;exitDy=0;exitPerimeter=0;" edge="1" parent="1" source="5" target="6">
                    <mxGeometry width="50" height="50" relative="1" as="geometry">
                        <mxPoint x="420" y="425" as="sourcePoint"/>
                        <mxPoint x="520" y="425" as="targetPoint"/>
                    </mxGeometry>
                </mxCell>
                <mxCell id="30" value="Lambda&lt;div&gt;notify&lt;/div&gt;" style="sketch=0;outlineConnect=0;fontColor=#232F3E;gradientColor=none;fillColor=#ED7100;strokeColor=none;dashed=0;verticalLabelPosition=bottom;verticalAlign=top;align=center;html=1;fontSize=12;fontStyle=0;aspect=fixed;pointerEvents=1;shape=mxgraph.aws4.lambda_function;" vertex="1" parent="1">
                    <mxGeometry x="530" y="621" width="48" height="48" as="geometry"/>
                </mxCell>
            </root>
        </mxGraphModel>
    </diagram>
</mxfile>